# xmcd CD database file
#
# Track frame offsets:
#	150
#	65473
#	100570
#	146865
#	174725
#	208688
#
# Disc length: 4031 seconds
#
# Revision: 0
# Processed by: cddbd v1.5.2PL0 Copyright (c) Steve Scherf et al.
# Submitted via: CDex 1.51
#
DISCID=550fbd06
DTITLE=Charlie Haden, Jan Gabarek and Egberto Gismonti - Magico
DYEAR=1900
DGENRE=Jazz
TTITLE0=01 - Bailarina
TTITLE1=02 - Magico
TTITLE2=03 - Silence
TTITLE3=04 - Spor
TTITLE4=05 - Palhaco
TTITLE5=Data Track
EXTD=
EXTT0=
EXTT1=
EXTT2=
EXTT3=
EXTT4=
EXTT5=
PLAYORDER=
